<mxfile host="app.diagrams.net" agent="Mozilla/5.0 (Windows NT 10.0; Win64; x64) AppleWebKit/537.36 (KHTML, like Gecko) Chrome/131.0.0.0 Safari/537.36" version="24.8.3">
  <diagram name="第 1 页" id="v3xi56DvkpdQL4hXvgko">
    <mxGraphModel dx="1221" dy="1901" grid="1" gridSize="10" guides="1" tooltips="1" connect="1" arrows="1" fold="1" page="1" pageScale="1" pageWidth="827" pageHeight="1169" math="0" shadow="0">
      <root>
        <mxCell id="0" />
        <mxCell id="1" parent="0" />
        <mxCell id="Ap5tmzXu4eU1Aieo7vga-4" style="edgeStyle=orthogonalEdgeStyle;rounded=0;orthogonalLoop=1;jettySize=auto;html=1;exitX=0.5;exitY=0;exitDx=0;exitDy=0;entryX=0;entryY=0.5;entryDx=0;entryDy=0;fontFamily=Helvetica;fontSize=12;fontColor=default;curved=1;fillColor=#e51400;strokeColor=#B20000;" edge="1" parent="1" source="Ap5tmzXu4eU1Aieo7vga-1" target="Ap5tmzXu4eU1Aieo7vga-3">
          <mxGeometry relative="1" as="geometry" />
        </mxCell>
        <mxCell id="Ap5tmzXu4eU1Aieo7vga-5" value="&lt;div style=&quot;color: rgb(35, 35, 35); background-color: rgb(204, 232, 207); font-family: &amp;quot;Jetbrains mono&amp;quot;, &amp;quot;HarmonyOS Sans SC&amp;quot;, &amp;quot;Courier New&amp;quot;, monospace, Consolas, &amp;quot;Courier New&amp;quot;, monospace; font-size: 15px; line-height: 20px; white-space-collapse: preserve;&quot;&gt;&lt;span style=&quot;color: #268bd2;&quot;&gt;MakeCoordinator()&lt;/span&gt;&lt;/div&gt;" style="edgeLabel;html=1;align=center;verticalAlign=middle;resizable=0;points=[];rounded=0;strokeColor=default;fontFamily=Helvetica;fontSize=12;fontColor=default;fillColor=default;" vertex="1" connectable="0" parent="Ap5tmzXu4eU1Aieo7vga-4">
          <mxGeometry x="-0.0126" y="1" relative="1" as="geometry">
            <mxPoint as="offset" />
          </mxGeometry>
        </mxCell>
        <mxCell id="Ap5tmzXu4eU1Aieo7vga-1" value="&lt;font style=&quot;font-size: 16px;&quot;&gt;&lt;b&gt;mrcoordinator.go&lt;/b&gt;&lt;/font&gt;" style="rounded=0;whiteSpace=wrap;html=1;" vertex="1" parent="1">
          <mxGeometry x="50" y="80" width="150" height="70" as="geometry" />
        </mxCell>
        <mxCell id="Ap5tmzXu4eU1Aieo7vga-2" value="&lt;font style=&quot;font-size: 16px;&quot;&gt;&lt;b&gt;mrworker.go&lt;/b&gt;&lt;/font&gt;" style="rounded=0;whiteSpace=wrap;html=1;" vertex="1" parent="1">
          <mxGeometry x="10" y="290" width="150" height="70" as="geometry" />
        </mxCell>
        <mxCell id="Ap5tmzXu4eU1Aieo7vga-23" style="edgeStyle=orthogonalEdgeStyle;rounded=0;orthogonalLoop=1;jettySize=auto;html=1;exitX=0.25;exitY=1;exitDx=0;exitDy=0;fontFamily=Helvetica;fontSize=12;fontColor=default;curved=1;entryX=0.25;entryY=0;entryDx=0;entryDy=0;fillColor=#6a00ff;strokeColor=#3700CC;" edge="1" parent="1" source="Ap5tmzXu4eU1Aieo7vga-3" target="Ap5tmzXu4eU1Aieo7vga-6">
          <mxGeometry relative="1" as="geometry">
            <mxPoint x="430" y="330" as="targetPoint" />
            <Array as="points">
              <mxPoint x="500" y="110" />
              <mxPoint x="500" y="245" />
              <mxPoint x="445" y="245" />
            </Array>
          </mxGeometry>
        </mxCell>
        <mxCell id="Ap5tmzXu4eU1Aieo7vga-24" value="&lt;div style=&quot;color: rgb(35, 35, 35); background-color: rgb(204, 232, 207); font-family: &amp;quot;Jetbrains mono&amp;quot;, &amp;quot;HarmonyOS Sans SC&amp;quot;, &amp;quot;Courier New&amp;quot;, monospace, Consolas, &amp;quot;Courier New&amp;quot;, monospace; font-size: 15px; line-height: 20px; white-space-collapse: preserve;&quot;&gt;&amp;nbsp;修改&lt;span style=&quot;color: #cb4b16;&quot;&gt;resp&lt;/span&gt; &lt;span style=&quot;color: #2aa198;&quot;&gt;*&lt;/span&gt;&lt;span style=&quot;color: #268bd2;&quot;&gt;Task&lt;/span&gt;&lt;/div&gt;" style="edgeLabel;html=1;align=center;verticalAlign=middle;resizable=0;points=[];rounded=0;strokeColor=default;fontFamily=Helvetica;fontSize=12;fontColor=default;fillColor=default;" vertex="1" connectable="0" parent="Ap5tmzXu4eU1Aieo7vga-23">
          <mxGeometry x="-0.1816" y="-4" relative="1" as="geometry">
            <mxPoint x="-26" y="11" as="offset" />
          </mxGeometry>
        </mxCell>
        <mxCell id="Ap5tmzXu4eU1Aieo7vga-37" style="edgeStyle=orthogonalEdgeStyle;rounded=0;orthogonalLoop=1;jettySize=auto;html=1;exitX=0;exitY=0;exitDx=0;exitDy=0;entryX=0.25;entryY=0;entryDx=0;entryDy=0;fontFamily=Helvetica;fontSize=12;fontColor=default;curved=1;fillColor=#6a00ff;strokeColor=#3700CC;" edge="1" parent="1" source="Ap5tmzXu4eU1Aieo7vga-3" target="Ap5tmzXu4eU1Aieo7vga-1">
          <mxGeometry relative="1" as="geometry">
            <Array as="points">
              <mxPoint x="400" />
              <mxPoint x="88" />
            </Array>
          </mxGeometry>
        </mxCell>
        <mxCell id="Ap5tmzXu4eU1Aieo7vga-38" value="&lt;div style=&quot;color: rgb(35, 35, 35); background-color: rgb(204, 232, 207); font-family: &amp;quot;Jetbrains mono&amp;quot;, &amp;quot;HarmonyOS Sans SC&amp;quot;, &amp;quot;Courier New&amp;quot;, monospace, Consolas, &amp;quot;Courier New&amp;quot;, monospace; font-size: 15px; line-height: 20px; white-space-collapse: preserve;&quot;&gt;&lt;span style=&quot;color: rgb(38, 139, 210);&quot;&gt;Done()&lt;/span&gt;&lt;/div&gt;" style="edgeLabel;html=1;align=center;verticalAlign=middle;resizable=0;points=[];rounded=0;strokeColor=default;fontFamily=Helvetica;fontSize=12;fontColor=default;fillColor=default;" vertex="1" connectable="0" parent="Ap5tmzXu4eU1Aieo7vga-37">
          <mxGeometry x="-0.0403" relative="1" as="geometry">
            <mxPoint as="offset" />
          </mxGeometry>
        </mxCell>
        <mxCell id="Ap5tmzXu4eU1Aieo7vga-3" value="&lt;font style=&quot;font-size: 16px;&quot;&gt;coordinator.go&lt;/font&gt;" style="rounded=1;whiteSpace=wrap;html=1;strokeColor=default;align=center;verticalAlign=middle;fontFamily=Helvetica;fontSize=12;fontColor=default;fillColor=default;" vertex="1" parent="1">
          <mxGeometry x="400" y="50" width="240" height="60" as="geometry" />
        </mxCell>
        <mxCell id="Ap5tmzXu4eU1Aieo7vga-16" style="edgeStyle=orthogonalEdgeStyle;rounded=0;orthogonalLoop=1;jettySize=auto;html=1;exitX=0;exitY=0;exitDx=0;exitDy=0;entryX=0;entryY=1;entryDx=0;entryDy=0;fontFamily=Helvetica;fontSize=12;fontColor=default;elbow=vertical;curved=1;fillColor=#e51400;strokeColor=#B20000;" edge="1" parent="1" source="Ap5tmzXu4eU1Aieo7vga-6" target="Ap5tmzXu4eU1Aieo7vga-3">
          <mxGeometry relative="1" as="geometry">
            <Array as="points">
              <mxPoint x="300" y="370" />
              <mxPoint x="300" y="110" />
            </Array>
          </mxGeometry>
        </mxCell>
        <mxCell id="Ap5tmzXu4eU1Aieo7vga-22" value="&lt;div style=&quot;color: rgb(35, 35, 35); background-color: rgb(204, 232, 207); font-family: &amp;quot;Jetbrains mono&amp;quot;, &amp;quot;HarmonyOS Sans SC&amp;quot;, &amp;quot;Courier New&amp;quot;, monospace, Consolas, &amp;quot;Courier New&amp;quot;, monospace; font-size: 15px; line-height: 20px; white-space-collapse: preserve;&quot;&gt;&lt;span style=&quot;color: #268bd2;&quot;&gt;rpc:&lt;/span&gt;&lt;span style=&quot;color: rgb(38, 139, 210);&quot;&gt;CallAllocateTask()&lt;/span&gt;&lt;/div&gt;" style="edgeLabel;html=1;align=center;verticalAlign=middle;resizable=0;points=[];rounded=0;strokeColor=default;fontFamily=Helvetica;fontSize=12;fontColor=default;fillColor=default;" vertex="1" connectable="0" parent="Ap5tmzXu4eU1Aieo7vga-16">
          <mxGeometry x="0.1885" y="8" relative="1" as="geometry">
            <mxPoint y="36" as="offset" />
          </mxGeometry>
        </mxCell>
        <mxCell id="Ap5tmzXu4eU1Aieo7vga-28" style="edgeStyle=orthogonalEdgeStyle;rounded=0;orthogonalLoop=1;jettySize=auto;html=1;exitX=0.5;exitY=0;exitDx=0;exitDy=0;entryX=0.5;entryY=1;entryDx=0;entryDy=0;fontFamily=Helvetica;fontSize=12;fontColor=default;curved=1;fillColor=#e51400;strokeColor=#B20000;" edge="1" parent="1" source="Ap5tmzXu4eU1Aieo7vga-6" target="Ap5tmzXu4eU1Aieo7vga-3">
          <mxGeometry relative="1" as="geometry">
            <Array as="points">
              <mxPoint x="550" y="380" />
              <mxPoint x="550" y="190" />
              <mxPoint x="520" y="190" />
            </Array>
          </mxGeometry>
        </mxCell>
        <mxCell id="Ap5tmzXu4eU1Aieo7vga-29" value="&lt;div style=&quot;color: rgb(35, 35, 35); background-color: rgb(204, 232, 207); font-family: &amp;quot;Jetbrains mono&amp;quot;, &amp;quot;HarmonyOS Sans SC&amp;quot;, &amp;quot;Courier New&amp;quot;, monospace, Consolas, &amp;quot;Courier New&amp;quot;, monospace; font-size: 15px; line-height: 20px; white-space-collapse: preserve;&quot;&gt;&lt;span style=&quot;color: #268bd2;&quot;&gt;rpc:CallCheck()&lt;/span&gt;&lt;/div&gt;" style="edgeLabel;html=1;align=center;verticalAlign=middle;resizable=0;points=[];rounded=0;strokeColor=default;fontFamily=Helvetica;fontSize=12;fontColor=default;fillColor=default;" vertex="1" connectable="0" parent="Ap5tmzXu4eU1Aieo7vga-28">
          <mxGeometry x="-0.1275" y="-2" relative="1" as="geometry">
            <mxPoint as="offset" />
          </mxGeometry>
        </mxCell>
        <mxCell id="Ap5tmzXu4eU1Aieo7vga-6" value="&lt;font style=&quot;font-size: 16px;&quot;&gt;worker.go&lt;/font&gt;" style="rounded=1;whiteSpace=wrap;html=1;strokeColor=default;align=center;verticalAlign=middle;fontFamily=Helvetica;fontSize=12;fontColor=default;fillColor=default;" vertex="1" parent="1">
          <mxGeometry x="380" y="380" width="260" height="60" as="geometry" />
        </mxCell>
        <mxCell id="Ap5tmzXu4eU1Aieo7vga-7" style="edgeStyle=orthogonalEdgeStyle;rounded=0;orthogonalLoop=1;jettySize=auto;html=1;exitX=0.5;exitY=1;exitDx=0;exitDy=0;entryX=0;entryY=0.5;entryDx=0;entryDy=0;fontFamily=Helvetica;fontSize=12;fontColor=default;curved=1;fillColor=#e51400;strokeColor=#B20000;" edge="1" parent="1" source="Ap5tmzXu4eU1Aieo7vga-2" target="Ap5tmzXu4eU1Aieo7vga-6">
          <mxGeometry relative="1" as="geometry">
            <mxPoint x="240" y="235" as="sourcePoint" />
            <mxPoint x="460" y="200" as="targetPoint" />
          </mxGeometry>
        </mxCell>
        <mxCell id="Ap5tmzXu4eU1Aieo7vga-8" value="&lt;div style=&quot;color: rgb(35, 35, 35); background-color: rgb(204, 232, 207); font-family: &amp;quot;Jetbrains mono&amp;quot;, &amp;quot;HarmonyOS Sans SC&amp;quot;, &amp;quot;Courier New&amp;quot;, monospace, Consolas, &amp;quot;Courier New&amp;quot;, monospace; font-size: 15px; line-height: 20px; white-space-collapse: preserve;&quot;&gt;&lt;div style=&quot;line-height: 20px;&quot;&gt;&lt;span style=&quot;color: #268bd2;&quot;&gt;Worker()&lt;/span&gt;&lt;/div&gt;&lt;/div&gt;" style="edgeLabel;html=1;align=center;verticalAlign=middle;resizable=0;points=[];rounded=0;strokeColor=default;fontFamily=Helvetica;fontSize=12;fontColor=default;fillColor=default;" vertex="1" connectable="0" parent="Ap5tmzXu4eU1Aieo7vga-7">
          <mxGeometry x="-0.0126" y="1" relative="1" as="geometry">
            <mxPoint as="offset" />
          </mxGeometry>
        </mxCell>
        <mxCell id="Ap5tmzXu4eU1Aieo7vga-26" style="edgeStyle=orthogonalEdgeStyle;rounded=0;orthogonalLoop=1;jettySize=auto;html=1;exitX=0.25;exitY=1;exitDx=0;exitDy=0;entryX=0.063;entryY=1.033;entryDx=0;entryDy=0;entryPerimeter=0;fontFamily=Helvetica;fontSize=12;fontColor=default;curved=1;dashed=1;dashPattern=8 8;" edge="1" parent="1" source="Ap5tmzXu4eU1Aieo7vga-6" target="Ap5tmzXu4eU1Aieo7vga-6">
          <mxGeometry relative="1" as="geometry">
            <Array as="points">
              <mxPoint x="445" y="500" />
              <mxPoint x="396" y="500" />
            </Array>
          </mxGeometry>
        </mxCell>
        <mxCell id="Ap5tmzXu4eU1Aieo7vga-27" value="&lt;div style=&quot;color: rgb(35, 35, 35); background-color: rgb(204, 232, 207); font-family: &amp;quot;Jetbrains mono&amp;quot;, &amp;quot;HarmonyOS Sans SC&amp;quot;, &amp;quot;Courier New&amp;quot;, monospace, Consolas, &amp;quot;Courier New&amp;quot;, monospace; font-size: 15px; line-height: 20px; white-space-collapse: preserve;&quot;&gt;&lt;span style=&quot;color: #268bd2;&quot;&gt;mapSolve()&lt;/span&gt;&lt;/div&gt;&lt;div style=&quot;color: rgb(35, 35, 35); background-color: rgb(204, 232, 207); font-family: &amp;quot;Jetbrains mono&amp;quot;, &amp;quot;HarmonyOS Sans SC&amp;quot;, &amp;quot;Courier New&amp;quot;, monospace, Consolas, &amp;quot;Courier New&amp;quot;, monospace; font-size: 15px; line-height: 20px; white-space-collapse: preserve;&quot;&gt;&lt;div style=&quot;line-height: 20px;&quot;&gt;&lt;span style=&quot;color: #268bd2;&quot;&gt;reduceSolve()&lt;/span&gt;&lt;/div&gt;&lt;/div&gt;" style="edgeLabel;html=1;align=center;verticalAlign=middle;resizable=0;points=[];rounded=0;strokeColor=default;fontFamily=Helvetica;fontSize=12;fontColor=default;fillColor=default;" vertex="1" connectable="0" parent="Ap5tmzXu4eU1Aieo7vga-26">
          <mxGeometry x="-0.2304" y="3" relative="1" as="geometry">
            <mxPoint x="-21" y="17" as="offset" />
          </mxGeometry>
        </mxCell>
        <mxCell id="Ap5tmzXu4eU1Aieo7vga-33" style="edgeStyle=orthogonalEdgeStyle;rounded=0;orthogonalLoop=1;jettySize=auto;html=1;exitX=0;exitY=0.5;exitDx=0;exitDy=0;entryX=0.5;entryY=0;entryDx=0;entryDy=0;fontFamily=Helvetica;fontSize=12;fontColor=default;curved=1;dashed=1;dashPattern=8 8;" edge="1" parent="1" source="Ap5tmzXu4eU1Aieo7vga-3" target="Ap5tmzXu4eU1Aieo7vga-3">
          <mxGeometry relative="1" as="geometry">
            <Array as="points">
              <mxPoint x="380" y="80" />
              <mxPoint x="380" y="-10" />
              <mxPoint x="520" y="-10" />
            </Array>
          </mxGeometry>
        </mxCell>
        <mxCell id="Ap5tmzXu4eU1Aieo7vga-40" value="&lt;div style=&quot;color: rgb(35, 35, 35); background-color: rgb(204, 232, 207); font-family: &amp;quot;Jetbrains mono&amp;quot;, &amp;quot;HarmonyOS Sans SC&amp;quot;, &amp;quot;Courier New&amp;quot;, monospace, Consolas, &amp;quot;Courier New&amp;quot;, monospace; font-size: 15px; line-height: 20px; white-space-collapse: preserve;&quot;&gt;&lt;span style=&quot;color: #268bd2;&quot;&gt;generateMap()&lt;/span&gt;&lt;/div&gt;" style="edgeLabel;html=1;align=center;verticalAlign=middle;resizable=0;points=[];rounded=0;strokeColor=default;fontFamily=Helvetica;fontSize=12;fontColor=default;fillColor=default;" vertex="1" connectable="0" parent="Ap5tmzXu4eU1Aieo7vga-33">
          <mxGeometry x="-0.0148" y="5" relative="1" as="geometry">
            <mxPoint x="17" y="-5" as="offset" />
          </mxGeometry>
        </mxCell>
        <mxCell id="Ap5tmzXu4eU1Aieo7vga-41" style="edgeStyle=orthogonalEdgeStyle;rounded=0;orthogonalLoop=1;jettySize=auto;html=1;exitX=0;exitY=1;exitDx=0;exitDy=0;entryX=0.25;entryY=1;entryDx=0;entryDy=0;fontFamily=Helvetica;fontSize=12;fontColor=default;curved=1;dashed=1;dashPattern=8 8;" edge="1" parent="1" source="Ap5tmzXu4eU1Aieo7vga-3" target="Ap5tmzXu4eU1Aieo7vga-3">
          <mxGeometry relative="1" as="geometry">
            <Array as="points">
              <mxPoint x="400" y="150" />
              <mxPoint x="460" y="150" />
            </Array>
          </mxGeometry>
        </mxCell>
        <mxCell id="Ap5tmzXu4eU1Aieo7vga-44" value="&lt;div style=&quot;color: rgb(35, 35, 35); background-color: rgb(204, 232, 207); font-family: &amp;quot;Jetbrains mono&amp;quot;, &amp;quot;HarmonyOS Sans SC&amp;quot;, &amp;quot;Courier New&amp;quot;, monospace, Consolas, &amp;quot;Courier New&amp;quot;, monospace; font-size: 15px; line-height: 20px; white-space-collapse: preserve;&quot;&gt;&lt;span style=&quot;color: #268bd2;&quot;&gt;AllocateTask()&lt;/span&gt;&lt;/div&gt;" style="edgeLabel;html=1;align=center;verticalAlign=middle;resizable=0;points=[];rounded=0;strokeColor=default;fontFamily=Helvetica;fontSize=12;fontColor=default;fillColor=default;" vertex="1" connectable="0" parent="Ap5tmzXu4eU1Aieo7vga-41">
          <mxGeometry x="-0.0333" y="-6" relative="1" as="geometry">
            <mxPoint x="-8" y="-6" as="offset" />
          </mxGeometry>
        </mxCell>
        <mxCell id="Ap5tmzXu4eU1Aieo7vga-45" style="edgeStyle=orthogonalEdgeStyle;rounded=0;orthogonalLoop=1;jettySize=auto;html=1;exitX=0;exitY=1;exitDx=0;exitDy=0;entryX=0.25;entryY=1;entryDx=0;entryDy=0;fontFamily=Helvetica;fontSize=12;fontColor=default;dashed=1;dashPattern=8 8;curved=1;" edge="1" parent="1" source="Ap5tmzXu4eU1Aieo7vga-3" target="Ap5tmzXu4eU1Aieo7vga-3">
          <mxGeometry relative="1" as="geometry">
            <Array as="points">
              <mxPoint x="370" y="110" />
              <mxPoint x="370" y="210" />
              <mxPoint x="490" y="210" />
              <mxPoint x="490" y="110" />
            </Array>
          </mxGeometry>
        </mxCell>
        <mxCell id="Ap5tmzXu4eU1Aieo7vga-47" value="&lt;div style=&quot;color: rgb(35, 35, 35); background-color: rgb(204, 232, 207); font-family: &amp;quot;Jetbrains mono&amp;quot;, &amp;quot;HarmonyOS Sans SC&amp;quot;, &amp;quot;Courier New&amp;quot;, monospace, Consolas, &amp;quot;Courier New&amp;quot;, monospace; font-size: 15px; line-height: 20px; white-space-collapse: preserve;&quot;&gt;&lt;span style=&quot;color: #268bd2;&quot;&gt;generateReduce&lt;/span&gt;()&lt;/div&gt;" style="edgeLabel;html=1;align=center;verticalAlign=middle;resizable=0;points=[];rounded=0;strokeColor=default;fontFamily=Helvetica;fontSize=12;fontColor=default;fillColor=default;" vertex="1" connectable="0" parent="Ap5tmzXu4eU1Aieo7vga-45">
          <mxGeometry x="0.3107" relative="1" as="geometry">
            <mxPoint x="-75" y="-10" as="offset" />
          </mxGeometry>
        </mxCell>
        <mxCell id="Ap5tmzXu4eU1Aieo7vga-48" style="edgeStyle=orthogonalEdgeStyle;rounded=0;orthogonalLoop=1;jettySize=auto;html=1;exitX=0.5;exitY=1;exitDx=0;exitDy=0;entryX=0.75;entryY=1;entryDx=0;entryDy=0;fontFamily=Helvetica;fontSize=12;fontColor=default;dashed=1;dashPattern=8 8;curved=1;" edge="1" parent="1" source="Ap5tmzXu4eU1Aieo7vga-3" target="Ap5tmzXu4eU1Aieo7vga-3">
          <mxGeometry relative="1" as="geometry">
            <Array as="points">
              <mxPoint x="540" y="110" />
              <mxPoint x="540" y="190" />
              <mxPoint x="630" y="190" />
              <mxPoint x="630" y="110" />
            </Array>
          </mxGeometry>
        </mxCell>
        <mxCell id="Ap5tmzXu4eU1Aieo7vga-50" value="&lt;div style=&quot;color: rgb(35, 35, 35); background-color: rgb(204, 232, 207); font-family: &amp;quot;Jetbrains mono&amp;quot;, &amp;quot;HarmonyOS Sans SC&amp;quot;, &amp;quot;Courier New&amp;quot;, monospace, Consolas, &amp;quot;Courier New&amp;quot;, monospace; font-size: 15px; line-height: 20px; white-space-collapse: preserve;&quot;&gt;&lt;span style=&quot;color: #268bd2;&quot;&gt;OkCheck()&lt;/span&gt;&lt;/div&gt;" style="edgeLabel;html=1;align=center;verticalAlign=middle;resizable=0;points=[];rounded=0;strokeColor=default;fontFamily=Helvetica;fontSize=12;fontColor=default;fillColor=default;" vertex="1" connectable="0" parent="Ap5tmzXu4eU1Aieo7vga-48">
          <mxGeometry x="0.0229" y="3" relative="1" as="geometry">
            <mxPoint x="-14" y="3" as="offset" />
          </mxGeometry>
        </mxCell>
      </root>
    </mxGraphModel>
  </diagram>
</mxfile>
